<?xml version="1.0" standalone="no"?><!DOCTYPE svg PUBLIC "-//W3C//DTD SVG 1.1//EN" "http://www.w3.org/Graphics/SVG/1.1/DTD/svg11.dtd"><svg t="1683770215520" class="icon" viewBox="0 0 1024 1024" version="1.1" xmlns="http://www.w3.org/2000/svg" p-id="2406" xmlns:xlink="http://www.w3.org/1999/xlink" width="256" height="256"><path d="M853.333 247.467H170.667c-17.067 0-34.134-17.067-34.134-34.134S153.6 179.2 170.667 179.2h682.666c17.067 0 34.134 17.067 34.134 34.133s-17.067 34.134-34.134 34.134z m0 298.666H170.667c-17.067 0-34.134-17.066-34.134-34.133s17.067-34.133 34.134-34.133h682.666c17.067 0 34.134 17.066 34.134 34.133s-17.067 34.133-34.134 34.133z m0 298.667H170.667c-17.067 0-34.134-17.067-34.134-34.133s17.067-34.134 34.134-34.134h682.666c17.067 0 34.134 17.067 34.134 34.134S870.4 844.8 853.333 844.8z" fill="#333333" p-id="2407"></path></svg>